HIERARCHY
ROOT Hips
{
	OFFSET 0.000000 0.000000 0.000000
	CHANNELS 6 Xposition Yposition Zposition Zrotation Yrotation Xrotation 
	JOINT LHipJoint
	{
		OFFSET 0.000000 0.000000 0.000000
		CHANNELS 3 Zrotation Yrotation Xrotation
		JOINT LeftUpLeg
		{
			OFFSET 1.363060 -1.794630 0.839290
			CHANNELS 3 Zrotation Yrotation Xrotation
			JOINT LeftLeg
			{
				OFFSET 2.448110 -6.726130 0.000000
				CHANNELS 3 Zrotation Yrotation Xrotation
				JOINT LeftFoot
				{
					OFFSET 2.562200 -7.039590 0.000000
					CHANNELS 3 Zrotation Yrotation Xrotation
					JOINT LeftToeBase
					{
						OFFSET 0.157640 -0.433110 2.322550
						CHANNELS 3 Zrotation Yrotation Xrotation
						End Site
						{
							OFFSET 0.000000 0.000000 0.000000
						}
					}
				}
			}
		}
	}
	JOINT RHipJoint
	{
		OFFSET 0.000000 0.000000 0.000000
		CHANNELS 3 Zrotation Yrotation Xrotation
		JOINT RightUpLeg
		{
			OFFSET -1.305520 -1.794630 0.839290
			CHANNELS 3 Zrotation Yrotation Xrotation
			JOINT RightLeg
			{
				OFFSET -2.542530 -6.985550 0.000000
				CHANNELS 3 Zrotation Yrotation Xrotation
				JOINT RightFoot
				{
					OFFSET -2.568260 -7.056230 0.000000
					CHANNELS 3 Zrotation Yrotation Xrotation
					JOINT RightToeBase
					{
						OFFSET -0.164730 -0.452590 2.363150
						CHANNELS 3 Zrotation Yrotation Xrotation
						End Site
						{
							OFFSET 0.000000 0.000000 0.000000
						}
					}
				}
			}
		}
	}
	JOINT LowerBack
	{
		OFFSET 0.000000 0.000000 0.000000
		CHANNELS 3 Zrotation Yrotation Xrotation
		JOINT Spine
		{
			OFFSET 0.028270 2.035590 -0.193380
			CHANNELS 3 Zrotation Yrotation Xrotation
			JOINT Spine1
			{
				OFFSET 0.056720 2.048850 -0.042750
				CHANNELS 3 Zrotation Yrotation Xrotation
				JOINT Neck
				{
					OFFSET 0.000000 0.000000 0.000000
					CHANNELS 3 Zrotation Yrotation Xrotation
					JOINT Neck1
					{
						OFFSET -0.054170 1.746240 0.172020
						CHANNELS 3 Zrotation Yrotation Xrotation
						JOINT Head
						{
							OFFSET 0.104070 1.761360 -0.123970
							CHANNELS 3 Zrotation Yrotation Xrotation
							End Site
							{
								OFFSET 0.000000 0.000000 0.000000
							}
						}
					}
				}
				JOINT LeftShoulder
				{
					OFFSET 0.000000 0.000000 0.000000
					CHANNELS 3 Zrotation Yrotation Xrotation
					JOINT LeftArm
					{
						OFFSET 3.362410 1.200890 -0.311210
						CHANNELS 3 Zrotation Yrotation Xrotation
						JOINT LeftForeArm
						{
							OFFSET 4.983000 -0.000000 -0.000000
							CHANNELS 3 Zrotation Yrotation Xrotation
							JOINT LeftHand
							{
								OFFSET 3.483560 -0.000000 -0.000000
								CHANNELS 3 Zrotation Yrotation Xrotation
								JOINT LeftFingerBase
								{
									OFFSET 0.000000 0.000000 0.000000
									CHANNELS 3 Zrotation Yrotation Xrotation
									JOINT LeftHandIndex1
									{
										OFFSET 0.715260 -0.000000 -0.000000
										CHANNELS 3 Zrotation Yrotation Xrotation
										End Site
										{
											OFFSET 0.000000 0.000000 0.000000
										}
									}
								}
								JOINT LThumb
								{
									OFFSET 0.000000 0.000000 0.000000
									CHANNELS 3 Zrotation Yrotation Xrotation
									End Site
									{
										OFFSET 0.000000 0.000000 0.000000
									}
								}
							}
						}
					}
				}
				JOINT RightShoulder
				{
					OFFSET 0.000000 0.000000 0.000000
					CHANNELS 3 Zrotation Yrotation Xrotation
					JOINT RightArm
					{
						OFFSET -3.136600 1.374050 -0.404650
						CHANNELS 3 Zrotation Yrotation Xrotation
						JOINT RightForeArm
						{
							OFFSET -5.241900 -0.000000 -0.000000
							CHANNELS 3 Zrotation Yrotation Xrotation
							JOINT RightHand
							{
								OFFSET -3.444170 -0.000000 -0.000000
								CHANNELS 3 Zrotation Yrotation Xrotation
								JOINT RightFingerBase
								{
									OFFSET 0.000000 0.000000 0.000000
									CHANNELS 3 Zrotation Yrotation Xrotation
									JOINT RightHandIndex1
									{
										OFFSET -0.622530 -0.000000 -0.000000
										CHANNELS 3 Zrotation Yrotation Xrotation
										End Site
										{
											OFFSET 0.000000 0.000000 0.000000
										}
									}
								}
								JOINT RThumb
								{
									OFFSET 0.000000 0.000000 0.000000
									CHANNELS 3 Zrotation Yrotation Xrotation
									End Site
									{
										OFFSET 0.000000 0.000000 0.000000
									}
								}
							}
						}
					}
				}
			}
		}
	}
}
MOTION
Frames: 8
Frame Time: 0.008333
-10.438821 16.776966 1.179117 -29.623304 83.957420 -6.943711 -11.652763 2.207516 -2.611863 -4.745910 5.377426 -4.586731 -1.104685 1.318876 25.713601 0.077080 -2.447866 3.950880 -0.372100 -0.000000 -77.639700 7.732831 -0.286805 1.540879 9.914740 7.295609 -43.675282 3.027881 -0.988480 17.284635 0.148772 0.716209 5.111382 -0.441300 0.000000 -36.726100 6.309975 -1.759066 3.788676 0.335955 -1.947672 -2.280677 -7.718032 -2.032920 -0.176374 12.523274 4.406046 5.273543 -4.357144 -0.394443 3.197926 0.000000 0.000000 0.000000 -6.516248 -9.356498 1.765416 -59.318756 -32.100067 18.154444 -2.089144 -55.049260 -0.024280 5.967159 -3.767506 -0.219505 -0.156983 0.364105 -0.000000 0.000000 0.000000 0.000000 0.000000 0.000000 0.000000 20.732873 1.248713 1.389260 54.684699 14.627357 -5.099107 2.834170 27.725309 0.008465 -0.133611 8.160584 -0.013375 0.056813 -0.105230 -0.000000 0.000000 0.000000 0.000000 0.000000 0.000000 0.000000 
-10.255816 16.765610 1.185303 -35.605078 84.150209 -13.023223 -11.867662 2.146612 -2.589142 -3.869629 5.303301 -5.245740 -0.872586 1.479442 27.963675 0.117147 -2.721972 5.361726 -0.516800 -0.000000 -79.141300 7.591358 -0.428454 1.385544 10.514705 7.356506 -43.891858 2.961196 -1.269953 19.878122 0.046977 0.383307 4.064880 -0.498300 0.000000 -34.967100 7.047311 -1.818357 3.915576 0.486378 -2.029459 -2.279571 -7.743395 -2.122820 -0.232788 12.676433 4.804956 5.382778 -4.380944 -0.395248 3.228952 0.000000 0.000000 0.000000 -6.711441 -9.406638 1.780809 -59.646632 -31.498145 17.754554 -2.092693 -54.820391 -0.025795 6.284026 -3.917842 -0.239521 -0.158226 0.364029 -0.000000 0.000000 0.000000 0.000000 0.000000 0.000000 0.000000 20.975445 1.475437 1.409586 54.495797 15.001904 -6.092225 2.867108 26.340709 0.008261 -0.453973 8.320428 -0.037386 0.058447 -0.104509 -0.000000 0.000000 0.000000 0.000000 0.000000 0.000000 0.000000 
-10.076986 16.760351 1.190845 -42.233253 84.355045 -19.775009 -12.112985 2.056383 -2.578060 -2.964874 5.271907 -6.011514 -0.625255 1.633891 30.328178 0.178213 -2.995171 7.010780 -0.700100 0.000001 -79.806800 7.426731 -0.580549 1.199197 11.178799 7.272190 -43.896174 2.926641 -1.503117 22.108751 -0.053546 0.068663 2.893223 -0.538400 -0.000000 -33.780900 7.752710 -1.898962 4.085379 0.631661 -2.127209 -2.273172 -7.754937 -2.229546 -0.300769 12.851768 5.252088 5.503392 -4.387683 -0.395201 3.262846 0.000000 0.000000 0.000000 -6.847717 -9.480420 1.790188 -60.085783 -30.876462 17.346540 -2.098613 -54.404074 -0.027647 6.671012 -4.065393 -0.262847 -0.159634 0.362950 -0.000000 0.000000 0.000000 0.000000 0.000000 0.000000 0.000000 21.163467 1.754120 1.427170 54.403901 15.360436 -7.281411 2.890140 24.856642 0.007936 -0.816275 8.459898 -0.065297 0.059830 -0.104171 -0.000000 0.000000 0.000000 0.000000 0.000000 0.000000 0.000000 
-9.902098 16.760594 1.196964 -49.312798 84.553476 -26.998090 -12.380792 1.942108 -2.572364 -2.074342 5.264719 -6.871648 -0.373590 1.778556 32.768003 0.265871 -3.206192 8.833288 -0.908300 -0.000000 -79.440300 7.244165 -0.737544 0.986862 11.877883 7.043089 -43.697578 2.923882 -1.686980 23.953568 -0.151878 -0.224307 1.632185 -0.560200 -0.000000 -33.168100 8.387073 -1.992413 4.284829 0.763432 -2.231900 -2.261580 -7.751918 -2.343526 -0.371864 13.050452 5.702912 5.622092 -4.378498 -0.394352 3.295993 0.000000 0.000000 0.000000 -6.916847 -9.572682 1.788740 -60.625922 -30.247591 16.948089 -2.105644 -53.800443 -0.029697 7.108396 -4.201796 -0.288484 -0.160934 0.360625 -0.000000 0.000000 0.000000 0.000000 0.000000 0.000000 0.000000 21.302112 2.045369 1.441304 54.414710 15.737253 -8.614477 2.903300 23.270631 0.007469 -1.239520 8.576003 -0.098408 0.061158 -0.104203 -0.000000 0.000000 0.000000 0.000000 0.000000 0.000000 0.000000 
-9.730770 16.765442 1.204744 -56.678087 84.732304 -34.521027 -12.659938 1.810648 -2.566841 -1.230829 5.270252 -7.817760 -0.130048 1.912388 35.253349 0.381491 -3.294052 10.735070 -1.114100 0.000000 -77.916900 7.051789 -0.892114 0.755700 12.584013 6.680083 -43.313423 2.948474 -1.822591 25.413185 -0.247966 -0.497250 0.330598 -0.564900 0.000000 -33.071300 8.927212 -2.089298 4.499584 0.876876 -2.334675 -2.246894 -7.733936 -2.455707 -0.443976 13.271760 6.155594 5.736975 -4.351350 -0.392674 3.327996 0.000000 0.000000 0.000000 -6.928497 -9.672608 1.778878 -61.242002 -29.626360 16.584866 -2.114270 -53.012669 -0.031770 7.571221 -4.317892 -0.314631 -0.161993 0.356909 -0.000000 0.000000 0.000000 0.000000 0.000000 0.000000 0.000000 21.380836 2.360020 1.450912 54.547892 16.092550 -10.109565 2.903984 21.633805 0.006844 -1.702793 8.649171 -0.134820 0.062241 -0.104576 -0.000000 0.000000 0.000000 0.000000 0.000000 0.000000 0.000000 
-9.562458 16.774053 1.215415 -64.055223 84.893344 -42.064105 -12.930375 1.673207 -2.557878 -0.485461 5.268736 -8.834939 0.092598 2.036872 37.751316 0.522391 -3.184466 12.600330 -1.272800 0.000000 -75.207100 6.867295 -1.030749 0.510163 13.252437 6.186134 -42.777606 2.991513 -1.914680 26.523341 -0.339335 -0.737508 -0.964047 -0.551200 0.000001 -33.383100 9.339581 -2.180561 4.719296 0.964611 -2.426717 -2.227747 -7.703060 -2.556447 -0.506323 13.515510 6.550163 5.831297 -4.311885 -0.390411 3.354085 0.000000 0.000000 0.000000 -6.877691 -9.777986 1.756307 -61.913779 -29.021161 16.267029 -2.123570 -52.056956 -0.033658 8.026317 -4.406699 -0.339385 -0.162494 0.351676 -0.000000 0.000000 0.000000 0.000000 0.000000 0.000000 0.000000 21.424131 2.638094 1.456204 54.786587 16.485587 -11.650588 2.894469 19.941386 0.006059 -2.231190 8.688003 -0.176131 0.063386 -0.105192 -0.000000 0.000000 0.000000 0.000000 0.000000 0.000000 0.000000 
-9.396627 16.785615 1.229654 -71.322863 85.042514 -49.499650 -13.177044 1.538250 -2.544391 0.132995 5.254321 -9.916341 0.286161 2.155071 40.238172 0.682139 -2.819296 14.310513 -1.334600 -0.000000 -71.441500 6.704218 -1.145464 0.258164 13.849054 5.580044 -42.122566 3.043795 -1.968105 27.321493 -0.424629 -0.944856 -2.196402 -0.522900 0.000000 -33.972700 9.614122 -2.259132 4.932870 1.024372 -2.502282 -2.205716 -7.660996 -2.639753 -0.557243 13.778479 6.890121 5.904909 -4.260562 -0.387641 3.374191 0.000000 0.000000 0.000000 -6.783629 -9.876492 1.726528 -62.607433 -28.446135 16.015932 -2.135492 -50.948514 -0.035165 8.442718 -4.460307 -0.360346 -0.162414 0.344926 -0.000000 0.000000 0.000000 0.000000 0.000000 0.000000 0.000000 21.431268 2.891664 1.456554 55.135062 16.877643 -13.218697 2.873748 18.252280 0.005115 -2.799884 8.681799 -0.219844 0.064418 -0.105950 -0.000000 0.000000 0.000000 0.000000 0.000000 0.000000 0.000000 
-9.232532 16.799444 1.247332 -78.508892 85.177092 -56.844866 -13.394213 1.409462 -2.526143 0.624021 5.232511 -11.065352 0.448259 2.270502 42.695499 0.853138 -2.163923 15.760422 -1.257300 -0.000001 -66.915300 6.566855 -1.236314 0.012007 14.360327 4.902021 -41.378220 3.097695 -1.986945 27.838359 -0.504248 -1.134875 -3.307620 -0.487699 -0.000000 -34.709500 9.765142 -2.318341 5.126664 1.058872 -2.557028 -2.184126 -7.609278 -2.701315 -0.598742 14.052694 7.190889 5.962455 -4.197537 -0.384445 3.389711 0.000000 0.000000 0.000000 -6.675427 -9.964251 1.696425 -63.290173 -27.900961 15.841366 -2.151746 -49.713568 -0.036126 8.788988 -4.470312 -0.375108 -0.161700 0.336758 0.000000 0.000000 0.000000 0.000000 0.000000 0.000000 0.000000 21.395280 3.142985 1.452258 55.592371 17.213679 -14.795052 2.841873 16.644028 0.004034 -3.372346 8.612480 -0.261857 0.065170 -0.106720 -0.000000 0.000000 0.000000 0.000000 0.000000 0.000000 0.000000 
